HIERARCHY
ROOT Hips
{
	OFFSET 0.000000 0.000000 0.000000
	CHANNELS 6 Xposition Yposition Zposition Xrotation Yrotation Zrotation
	JOINT LeftUpLeg_virtual
	{
		OFFSET 0.000000 0.000000 0.000000
		CHANNELS 3 Xrotation Yrotation Zrotation
		JOINT LeftUpLeg
		{
			OFFSET 13.026900 -6.336304 -1.092800
			CHANNELS 3 Xrotation Yrotation Zrotation
			JOINT LeftLeg
			{
				OFFSET 0.524474 -46.096886 9.782700
				CHANNELS 3 Xrotation Yrotation Zrotation
				JOINT LeftFoot
				{
					OFFSET -0.524474 -53.427422 -12.948200
					CHANNELS 3 Xrotation Yrotation Zrotation
					JOINT LeftToeBase
					{
						OFFSET 0.192200 -14.009700 16.364100
						CHANNELS 3 Xrotation Yrotation Zrotation
						JOINT LeftToe_End
						{
							OFFSET -1.784700 -0.561700 9.474800
							CHANNELS 3 Xrotation Yrotation Zrotation
							End Site
							{
								OFFSET 0 0 0
							}
						}
					}
				}
			}
		}
	}
	JOINT RightUpLeg_virtual
	{
		OFFSET 0.000000 0.000000 0.000000
		CHANNELS 3 Xrotation Yrotation Zrotation
		JOINT RightUpLeg
		{
			OFFSET -12.883000 -6.336304 -1.092800
			CHANNELS 3 Xrotation Yrotation Zrotation
			JOINT RightLeg
			{
				OFFSET -0.524587 -46.096825 9.782800
				CHANNELS 3 Xrotation Yrotation Zrotation
				JOINT RightFoot
				{
					OFFSET 0.524587 -53.427383 -12.948300
					CHANNELS 3 Xrotation Yrotation Zrotation
					JOINT RightToeBase
					{
						OFFSET -0.192200 -14.009700 16.364100
						CHANNELS 3 Xrotation Yrotation Zrotation
						JOINT RightToe_End
						{
							OFFSET 1.784700 -0.561700 9.474800
							CHANNELS 3 Xrotation Yrotation Zrotation
							End Site
							{
								OFFSET 0 0 0
							}
						}
					}
				}
			}
		}
	}
	JOINT Spine_virtual
	{
		OFFSET 0.000000 0.000000 0.000000
		CHANNELS 3 Xrotation Yrotation Zrotation
		JOINT Spine
		{
			OFFSET 0.072000 7.257294 -0.789700
			CHANNELS 3 Xrotation Yrotation Zrotation
			JOINT Spine1
			{
				OFFSET 0.000000 12.508769 -0.658067
				CHANNELS 3 Xrotation Yrotation Zrotation
				JOINT Spine1_split
				{
					OFFSET 0.000000 12.508769 -0.658067
					CHANNELS 3 Xrotation Yrotation Zrotation
					JOINT Spine2
					{
						OFFSET 0.000000 12.508769 -0.658067
						CHANNELS 3 Xrotation Yrotation Zrotation
						JOINT Neck_virtual
						{
							OFFSET 0.000000 0.000000 0.000000
							CHANNELS 3 Xrotation Yrotation Zrotation
							JOINT Neck
							{
								OFFSET 0.000000 14.033295 7.520400
								CHANNELS 3 Xrotation Yrotation Zrotation
								JOINT Head
								{
									OFFSET 0.000000 8.198502 5.703100
									CHANNELS 3 Xrotation Yrotation Zrotation
									JOINT HeadTop_End
									{
										OFFSET 0.000000 17.760803 13.332701
										CHANNELS 3 Xrotation Yrotation Zrotation
										End Site
										{
											OFFSET 0 0 0
										}
									}
								}
							}
						}
						JOINT LeftShoulder_virtual
						{
							OFFSET 0.000000 0.000000 0.000000
							CHANNELS 3 Xrotation Yrotation Zrotation
							JOINT LeftShoulder
							{
								OFFSET 6.292450 5.785301 -0.669000
								CHANNELS 3 Xrotation Yrotation Zrotation
								JOINT LeftShoulder_split
								{
									OFFSET 6.292450 5.785301 -0.669000
									CHANNELS 3 Xrotation Yrotation Zrotation
									JOINT LeftArm
									{
										OFFSET 13.907140 -6.093903 1.965100
										CHANNELS 3 Xrotation Yrotation Zrotation
										JOINT LeftForeArm
										{
											OFFSET 34.140198 0.000000 0.000000
											CHANNELS 3 Xrotation Yrotation Zrotation
											JOINT LeftHand
											{
												OFFSET 40.960209 0.000000 0.000000
												CHANNELS 3 Xrotation Yrotation Zrotation
												End Site
												{
													OFFSET 0 0 0
												}
											}
										}
									}
								}
							}
						}
						JOINT RightShoulder_virtual
						{
							OFFSET 0.000000 0.000000 0.000000
							CHANNELS 3 Xrotation Yrotation Zrotation
							JOINT RightShoulder
							{
								OFFSET -6.292450 5.785301 -0.669000
								CHANNELS 3 Xrotation Yrotation Zrotation
								JOINT RightShoulder_split
								{
									OFFSET -6.292450 5.785301 -0.669000
									CHANNELS 3 Xrotation Yrotation Zrotation
									JOINT RightArm
									{
										OFFSET -13.907140 -6.093903 1.965100
										CHANNELS 3 Xrotation Yrotation Zrotation
										JOINT RightForeArm
										{
											OFFSET -34.140198 0.000000 0.000000
											CHANNELS 3 Xrotation Yrotation Zrotation
											JOINT RightHand
											{
												OFFSET -40.960209 0.000000 0.000000
												CHANNELS 3 Xrotation Yrotation Zrotation
												End Site
												{
													OFFSET 0 0 0
												}
											}
										}
									}
								}
							}
						}
					}
				}
			}
		}
	}
}
MOTION
Frames: 4
Frame Time: 0.03333333
-0.497656 115.183990 -6.421406 0.000000 0.000000 0.000000 3.704614 6.020812 -0.342012 -15.725843 8.693628 5.964983 22.644963 1.500473 0.583535 -10.684129 1.393500 -5.850496 -1.597964 0.337455 0.189662 0.000000 0.000000 0.000000 3.898748 5.789300 -0.680897 -10.592158 -6.025632 -6.563452 18.486561 -8.262998 2.762419 -6.278190 -16.859448 2.253820 -2.166619 -0.174175 -0.534274 0.000000 0.000000 0.000000 4.791656 3.020560 -1.527686 18.375184 -2.335165 -0.208116 0.314421 -0.079613 1.087964 1.078553 -0.385739 0.074110 0.000000 0.000000 0.000000 1.099408 -0.515738 0.471107 17.815587 3.020794 -0.746778 11.374209 2.388783 1.969332 0.000000 0.000000 0.000000 0.984319 0.002432 -0.061415 12.393181 -36.890699 -0.527845 1.682583 -1.377474 -3.139000 12.168732 17.478473 -47.112702 -1.349615 -36.947355 0.025309 0.000000 0.000000 0.000000 0.316571 -0.179919 0.761896 0.889866 -1.641682 7.426758 1.750360 5.930147 -1.459451 -0.281684 16.991883 36.561303 0.623187 15.129578 1.347196 0.000000 0.000000 0.000000 
-0.418418 115.354858 -6.192768 0.000000 0.000000 0.000000 3.490280 6.057868 -0.245081 -15.287005 8.873237 5.853079 22.198379 1.497690 0.584559 -10.584579 1.373796 -5.718828 -1.583881 0.342645 0.215955 0.000000 0.000000 0.000000 3.723270 5.788899 -0.590636 -10.217582 -6.006170 -6.619691 18.272472 -8.133591 2.718142 -6.103872 -16.892610 2.298028 -2.109481 -0.184134 -0.520267 0.000000 0.000000 0.000000 4.547950 3.170090 -1.376340 17.791121 -2.361456 -0.197002 0.352460 -0.109859 1.004471 1.082776 -0.442144 0.050452 0.000000 0.000000 0.000000 1.127311 -0.558260 0.372600 17.790242 2.273950 -0.464354 11.390595 -0.152960 3.134097 0.000000 0.000000 0.000000 1.054898 -0.056458 -0.140074 12.112237 -36.636711 -0.497994 1.726870 -1.067162 -2.977684 13.717967 18.172434 -47.372519 -1.389003 -36.573262 -0.047599 0.000000 0.000000 0.000000 0.360065 -0.226533 0.717359 0.612222 -1.827880 7.037612 1.966182 6.016545 -1.334668 0.940067 16.224293 36.613905 0.682090 15.105868 1.243902 0.000000 0.000000 0.000000 
-0.359519 115.462814 -6.071201 0.000000 0.000000 0.000000 3.287744 6.052479 -0.193741 -14.955650 8.958452 5.733732 21.834298 1.448294 0.623313 -10.501844 1.344055 -5.572919 -1.553299 0.349377 0.212862 0.000000 0.000000 0.000000 3.551164 5.747106 -0.536574 -9.876378 -5.963165 -6.621405 18.115460 -8.004368 2.687904 -5.968711 -16.921751 2.341950 -2.111630 -0.193118 -0.514922 0.000000 0.000000 0.000000 4.325578 3.305905 -1.273241 17.289640 -2.315798 -0.184771 0.427661 -0.137597 0.991368 1.119471 -0.475588 0.035131 0.000000 0.000000 0.000000 1.144823 -0.585528 0.332088 17.660923 1.611911 -0.221288 11.342704 -2.270798 4.081705 0.000000 0.000000 0.000000 1.153801 -0.113137 -0.141793 11.831033 -36.167470 -0.462100 1.835983 -0.719556 -2.831186 14.747055 18.408504 -47.915778 -1.500262 -36.370365 -0.164574 0.000000 0.000000 0.000000 0.426934 -0.267150 0.725215 0.431916 -2.019663 6.794272 2.201228 6.231646 -1.250805 1.237904 15.651650 37.238468 0.666880 14.929487 1.185581 0.000000 0.000000 0.000000 
-0.324664 115.493698 -6.016384 0.000000 0.000000 0.000000 3.075597 6.035109 -0.165998 -14.718293 8.893343 5.597993 21.614140 1.334436 0.704931 -10.421492 1.297810 -5.446493 -1.506931 0.357168 0.179962 0.000000 0.000000 0.000000 3.351418 5.698210 -0.499800 -9.572960 -5.883438 -6.581044 18.044682 -7.897719 2.670810 -5.901381 -16.967185 2.366290 -2.163861 -0.200249 -0.519696 0.000000 0.000000 0.000000 4.097787 3.446703 -1.203243 16.883644 -2.204701 -0.173243 0.525082 -0.155547 1.038277 1.147447 -0.460506 -0.027553 0.000000 0.000000 0.000000 1.138994 -0.594525 0.339998 17.476306 1.058955 -0.054753 11.292976 -3.964835 4.845866 0.000000 0.000000 0.000000 1.257367 -0.162340 -0.087794 11.557292 -35.585596 -0.461389 1.873051 -0.317329 -2.725130 15.259344 18.200916 -48.587982 -1.708271 -36.066749 -0.325005 0.000000 0.000000 0.000000 0.496474 -0.291974 0.773097 0.361932 -2.187927 6.778688 2.413795 6.446181 -1.158650 0.740288 15.321545 38.374752 0.614094 14.531779 1.139123 0.000000 0.000000 0.000000 
